<?xml version="1.0" standalone="no"?>
<!DOCTYPE svg PUBLIC "-//W3C//DTD SVG 20010904//EN"
 "http://www.w3.org/TR/2001/REC-SVG-20010904/DTD/svg10.dtd">
<svg version="1.0" xmlns="http://www.w3.org/2000/svg"
 width="512.000000pt" height="512.000000pt" viewBox="0 0 512.000000 512.000000"
 preserveAspectRatio="xMidYMid meet">
<metadata>
Created by potrace 1.14, written by Peter Selinger 2001-2017
</metadata>
<g transform="translate(0.000000,512.000000) scale(0.100000,-0.100000)"
fill="#000000" stroke="none">
<path d="M2898 5065 c-2 -1 -36 -6 -76 -9 -85 -8 -220 -45 -301 -83 -136 -64
-312 -209 -402 -333 l-44 -61 0 -480 0 -481 35 43 c102 127 225 209 380 254
98 28 253 25 346 -7 143 -50 253 -149 324 -292 54 -110 70 -193 66 -336 -7
-197 -69 -350 -194 -477 -203 -205 -525 -199 -891 16 -28 17 -55 31 -59 31 -4
0 -7 -219 -7 -487 l0 -487 55 -43 c175 -138 412 -236 630 -260 148 -17 342 -5
480 27 549 131 945 551 1099 1165 11 45 23 105 27 135 3 30 8 58 10 61 23 41
23 638 -1 729 -2 8 -6 35 -9 60 -21 165 -81 368 -154 520 -61 128 -177 293
-276 393 -99 100 -109 109 -194 166 -170 115 -396 201 -591 226 -54 7 -248 15
-253 10z"/>
<path d="M870 2555 l0 -2415 25 0 c14 0 243 0 510 0 267 0 496 0 509 0 l23 0
0 2415 0 2415 -533 0 -534 0 0 -2415z"/>
</g>
</svg>
